<svg width="41" height="50" viewBox="0 0 41 50" fill="none" xmlns="http://www.w3.org/2000/svg">
<path d="M17.9446 25.0321L0.884373 7.9719C-0.294791 6.79274 -0.294791 4.886 0.884373 3.71938L3.71938 0.884373C4.89855 -0.294791 6.80528 -0.294791 7.9719 0.884373L20.0646 12.9771L32.1573 0.884373C33.3365 -0.294791 35.2432 -0.294791 36.4098 0.884373L39.2699 3.70684C40.4491 4.886 40.4491 6.79274 39.2699 7.95935L22.2097 25.0196C21.0305 26.2113 19.1238 26.2113 17.9446 25.0321ZM22.2097 49.1172L39.2699 32.0569C40.4491 30.8778 40.4491 28.971 39.2699 27.8044L36.4349 24.9694C35.2557 23.7903 33.349 23.7903 32.1824 24.9694L20.0771 37.0496L7.98444 24.9569C6.80528 23.7777 4.89855 23.7777 3.73193 24.9569L0.884373 27.7919C-0.294791 28.971 -0.294791 30.8778 0.884373 32.0444L17.9446 49.1046C19.1238 50.2964 21.0305 50.2963 22.2097 49.1172Z" fill="white" fill-opacity="0.9"/>
</svg>
